<!DOCTYPE svg PUBLIC "-//W3C//DTD SVG 1.1//EN" "http://www.w3.org/Graphics/SVG/1.1/DTD/svg11.dtd">
<!-- Uploaded to: SVG Repo, www.svgrepo.com, Transformed by: SVG Repo Mixer Tools -->
<svg width="90px" height="90px" viewBox="0 0 24.00 24.00" xmlns="http://www.w3.org/2000/svg" fill="#999" stroke="#999" transform="rotate(0)" stroke-width="0.00024000000000000003">
<g id="SVGRepo_bgCarrier" stroke-width="0"/>
<g id="SVGRepo_tracerCarrier" stroke-linecap="round" stroke-linejoin="round" stroke="#CCCCCC" stroke-width="0.048"/>
<g id="SVGRepo_iconCarrier"> <g> <path fill="none" d="M0 0h24v24H0z"/> <path fill-rule="nonzero" d="M13 10v4h6v-4h-6zm-2 0H5v4h6v-4zm2 9h6v-3h-6v3zm-2 0v-3H5v3h6zm2-14v3h6V5h-6zm-2 0H5v3h6V5zM4 3h16a1 1 0 0 1 1 1v16a1 1 0 0 1-1 1H4a1 1 0 0 1-1-1V4a1 1 0 0 1 1-1z"/> </g> </g>
</svg>